Moderustic-SemiBold.ufo
<glyph name="U" format="2">
  <advance width="675"/>
  <unicode hex="0055"/>
  <anchor x="338" y="719" name="top"/>
  <anchor x="338" y="-20" name="bottom"/>
  <anchor x="450" y="-1" name="ogonek"/>
  <outline>
    <contour>
      <point x="60" y="700" type="line" name="at01"/>
      <point x="60" y="262" type="line" smooth="yes"/>
      <point x="60" y="88"/>
      <point x="165" y="-20"/>
      <point x="336" y="-20" type="curve" smooth="yes" name="dv01"/>
      <point x="507" y="-20"/>
      <point x="615" y="89"/>
      <point x="615" y="262" type="curve" smooth="yes"/>
      <point x="615" y="700" type="line" name="at02"/>
      <point x="469" y="700" type="line"/>
      <point x="469" y="292" type="line" smooth="yes"/>
      <point x="469" y="157"/>
      <point x="430" y="100"/>
      <point x="337" y="100" type="curve" smooth="yes" name="dv02"/>
      <point x="245" y="100"/>
      <point x="206" y="156"/>
      <point x="206" y="292" type="curve" smooth="yes"/>
      <point x="206" y="700" type="line"/>
    </contour>
  </outline>
</glyph>
<glyph name="bracketright" format="2">
  <advance width="418"/>
  <unicode hex="005D"/>
  <outline>
    <contour>
      <point x="45" y="-217" type="line"/>
      <point x="346" y="-217" type="line"/>
      <point x="346" y="778" type="line"/>
      <point x="45" y="778" type="line"/>
      <point x="45" y="688" type="line"/>
      <point x="209" y="688" type="line"/>
      <point x="209" y="-127" type="line"/>
      <point x="45" y="-127" type="line"/>
    </contour>
  </outline>
</glyph>
<glyph name="b" format="2">
  <advance width="635"/>
  <unicode hex="0062"/>
  <anchor x="345" y="-20" name="bottom"/>
  <anchor x="353" y="750" name="top"/>
  <outline>
    <contour>
      <point x="73" y="0" type="line"/>
      <point x="218" y="0" type="line" name="ab02"/>
      <point x="218" y="750" type="line" name="ab01"/>
      <point x="73" y="750" type="line" name="sh01"/>
    </contour>
    <contour>
      <point x="372.491" y="-20" type="curve" smooth="yes" name="dv01"/>
      <point x="501.604" y="-20"/>
      <point x="584.5" y="99"/>
      <point x="584.5" y="255" type="curve" smooth="yes"/>
      <point x="584.5" y="411"/>
      <point x="510.593" y="520"/>
      <point x="371.767" y="520" type="curve" smooth="yes" name="at01"/>
      <point x="253.915" y="520"/>
      <point x="186" y="423"/>
      <point x="186" y="255" type="curve" smooth="yes"/>
      <point x="186" y="89"/>
      <point x="248.921" y="-20"/>
    </contour>
    <contour>
      <point x="329.251" y="90" type="curve" smooth="yes" name="dv02"/>
      <point x="260.095" y="90"/>
      <point x="218" y="153.197"/>
      <point x="218" y="256.52" type="curve" smooth="yes"/>
      <point x="218" y="348.809"/>
      <point x="261.097" y="410"/>
      <point x="328.249" y="410" type="curve" smooth="yes" name="sv01"/>
      <point x="398.407" y="410"/>
      <point x="439.5" y="351.818"/>
      <point x="439.5" y="255.517" type="curve" smooth="yes"/>
      <point x="439.5" y="154.201"/>
      <point x="396.403" y="90"/>
    </contour>
  </outline>
</glyph>
<glyph name="c" format="2">
  <advance width="563"/>
  <unicode hex="0063"/>
  <anchor x="303" y="520" name="top"/>
  <anchor x="303" y="-20" name="bottom"/>
  <outline>
    <contour>
      <point x="443" y="145" type="line"/>
      <point x="414" y="111.389"/>
      <point x="370" y="90"/>
      <point x="314" y="90" type="curve" smooth="yes" name="dv02"/>
      <point x="209" y="90"/>
      <point x="184" y="163.459"/>
      <point x="184" y="255.031" type="curve" smooth="yes"/>
      <point x="184" y="359.686"/>
      <point x="222" y="410"/>
      <point x="297" y="410" type="curve" smooth="yes" name="sv01"/>
      <point x="352" y="410"/>
      <point x="404" y="390.648"/>
      <point x="435" y="355" type="curve"/>
      <point x="513" y="433" type="line"/>
      <point x="463" y="490"/>
      <point x="386" y="520"/>
      <point x="293" y="520" type="curve" smooth="yes" name="at01"/>
      <point x="131" y="520"/>
      <point x="39" y="416"/>
      <point x="39" y="255" type="curve" smooth="yes"/>
      <point x="39" y="84"/>
      <point x="131" y="-20"/>
      <point x="292" y="-20" type="curve" smooth="yes" name="dv01"/>
      <point x="395" y="-20"/>
      <point x="471" y="10"/>
      <point x="521" y="67" type="curve"/>
    </contour>
  </outline>
</glyph>
<glyph name="e" format="2">
  <advance width="598"/>
  <unicode hex="0065"/>
  <anchor x="299" y="520" name="top"/>
  <anchor x="299" y="-20" name="bottom"/>
  <anchor x="417" y="-3" name="ogonek"/>
  <outline>
    <contour>
      <point x="186" y="322" type="line" name="sv02"/>
      <point x="195" y="376.621"/>
      <point x="240.582" y="410"/>
      <point x="303.009" y="410" type="curve" smooth="yes" name="sv01"/>
      <point x="364.445" y="410"/>
      <point x="404.082" y="376.621"/>
      <point x="413" y="322" type="curve" name="dv04"/>
    </contour>
    <contour>
      <point x="456" y="145" type="line"/>
      <point x="425.228" y="109.352"/>
      <point x="376.588" y="90"/>
      <point x="318.022" y="90" type="curve" smooth="yes" name="sv01"/>
      <point x="229.676" y="90"/>
      <point x="186" y="134.336"/>
      <point x="186" y="222" type="curve" name="sv04"/>
      <point x="561" y="222" type="line" name="dv03"/>
      <point x="561" y="419"/>
      <point x="468" y="520"/>
      <point x="305" y="520" type="curve" smooth="yes" name="at01"/>
      <point x="145" y="520"/>
      <point x="38" y="422"/>
      <point x="38" y="251" type="curve" smooth="yes" name="sv03"/>
      <point x="38" y="85"/>
      <point x="138" y="-20"/>
      <point x="312" y="-20" type="curve" smooth="yes" name="at01"/>
      <point x="405" y="-20"/>
      <point x="484" y="10"/>
      <point x="534" y="67" type="curve"/>
    </contour>
  </outline>
</glyph>
<glyph name="f" format="2">
  <advance width="423"/>
  <unicode hex="0066"/>
  <anchor x="244" y="750" name="top"/>
  <anchor x="183" y="-20" name="bottom"/>
  <outline>
    <contour>
      <point x="109" y="0" type="line" name="ab01"/>
      <point x="254" y="0" type="line"/>
      <point x="254" y="390" type="line" name="sv01"/>
      <point x="390" y="390" type="line"/>
      <point x="390" y="500" type="line" name="sv02"/>
      <point x="254" y="500" type="line"/>
      <point x="254" y="569" type="line" smooth="yes"/>
      <point x="254" y="620"/>
      <point x="273" y="637"/>
      <point x="310" y="637" type="curve" smooth="yes" name="dv01"/>
      <point x="326" y="637"/>
      <point x="357" y="634"/>
      <point x="375" y="627" type="curve"/>
      <point x="396" y="728" type="line"/>
      <point x="337" y="746"/>
      <point x="307" y="751"/>
      <point x="276" y="751" type="curve" smooth="yes" name="dv02"/>
      <point x="164" y="751"/>
      <point x="109" y="684"/>
      <point x="109" y="588" type="curve" smooth="yes"/>
      <point x="109" y="500" type="line" name="dv04"/>
      <point x="22" y="500" type="line"/>
      <point x="22" y="390" type="line"/>
      <point x="109" y="390" type="line" name="dv03"/>
    </contour>
  </outline>
</glyph>
<glyph name="u" format="2">
  <advance width="600"/>
  <unicode hex="0075"/>
  <anchor x="300" y="520" name="top"/>
  <anchor x="300" y="-20" name="bottom"/>
  <anchor x="406" y="-2" name="ogonek"/>
  <outline>
    <contour>
      <point x="66" y="500" type="line" name="av01"/>
      <point x="66" y="185" type="line" smooth="yes"/>
      <point x="66" y="62"/>
      <point x="153" y="-20"/>
      <point x="300" y="-20" type="curve" smooth="yes" name="dv01"/>
      <point x="448" y="-20"/>
      <point x="533" y="65"/>
      <point x="533" y="185" type="curve" smooth="yes"/>
      <point x="533" y="500" type="line" name="av02"/>
      <point x="388" y="500" type="line"/>
      <point x="388" y="209.291" type="line" smooth="yes"/>
      <point x="388" y="124.083"/>
      <point x="357" y="90"/>
      <point x="300" y="90" type="curve" smooth="yes" name="dv02"/>
      <point x="246" y="90"/>
      <point x="211" y="121.076"/>
      <point x="211" y="209.291" type="curve" smooth="yes"/>
      <point x="211" y="500" type="line"/>
    </contour>
  </outline>
</glyph>
<glyph name="section" format="2">
  <advance width="590"/>
  <unicode hex="00A7"/>
  <outline>
    <contour>
      <point x="370" y="153" type="line"/>
      <point x="405.778" y="169"/>
      <point x="426" y="194"/>
      <point x="426" y="224" type="curve" smooth="yes"/>
      <point x="426" y="274"/>
      <point x="391.013" y="292.058"/>
      <point x="305" y="309" type="curve" smooth="yes"/>
      <point x="127.013" y="344.058"/>
      <point x="53" y="406"/>
      <point x="53" y="515" type="curve" smooth="yes"/>
      <point x="53" y="640"/>
      <point x="145.265" y="720"/>
      <point x="291.35" y="720" type="curve" smooth="yes"/>
      <point x="404.759" y="720"/>
      <point x="486.451" y="672"/>
      <point x="547" y="595" type="curve"/>
      <point x="462" y="510" type="line"/>
      <point x="420.18" y="563"/>
      <point x="369.996" y="599"/>
      <point x="304.943" y="599" type="curve" smooth="yes"/>
      <point x="238.032" y="599"/>
      <point x="199" y="561"/>
      <point x="199" y="510" type="curve" smooth="yes"/>
      <point x="199" y="459"/>
      <point x="240.098" y="436.464"/>
      <point x="342" y="417" type="curve" smooth="yes"/>
      <point x="507.1" y="385.464"/>
      <point x="571" y="333"/>
      <point x="571" y="225" type="curve" smooth="yes"/>
      <point x="571" y="138"/>
      <point x="521.821" y="72"/>
      <point x="434" y="37" type="curve"/>
    </contour>
    <contour>
      <point x="121" y="-10" type="line"/>
      <point x="163.782" y="-63"/>
      <point x="215.12" y="-99"/>
      <point x="282.62" y="-99" type="curve" smooth="yes"/>
      <point x="351.07" y="-99"/>
      <point x="391" y="-61"/>
      <point x="391" y="-10" type="curve" smooth="yes"/>
      <point x="391" y="41"/>
      <point x="351.454" y="63.5346"/>
      <point x="253.382" y="83" type="curve" smooth="yes"/>
      <point x="94.5004" y="114.535"/>
      <point x="33" y="167"/>
      <point x="33" y="275" type="curve" smooth="yes"/>
      <point x="33" y="362"/>
      <point x="75" y="428"/>
      <point x="150" y="463" type="curve"/>
      <point x="216" y="347" type="line"/>
      <point x="192" y="331"/>
      <point x="178" y="306"/>
      <point x="178" y="275" type="curve" smooth="yes"/>
      <point x="178" y="226"/>
      <point x="211.675" y="207.942"/>
      <point x="294.458" y="191" type="curve" smooth="yes"/>
      <point x="465.766" y="155.942"/>
      <point x="537" y="94"/>
      <point x="537" y="-15" type="curve" smooth="yes"/>
      <point x="537" y="-140"/>
      <point x="443.61" y="-220"/>
      <point x="294.769" y="-220" type="curve" smooth="yes"/>
      <point x="179.977" y="-220"/>
      <point x="97.2874" y="-172"/>
      <point x="36" y="-95" type="curve"/>
    </contour>
  </outline>
</glyph>
<glyph name="Eth" format="2">
  <advance width="742"/>
  <unicode hex="00D0"/>
  <outline>
    <contour>
      <point x="213" y="120" type="line" name="sv01"/>
      <point x="213" y="580" type="line" name="sv02"/>
      <point x="327.661" y="580" type="line" smooth="yes"/>
      <point x="464.257" y="580"/>
      <point x="551" y="484"/>
      <point x="551" y="349" type="curve" smooth="yes"/>
      <point x="551" y="209"/>
      <point x="458.274" y="120"/>
      <point x="327.661" y="120" type="curve" smooth="yes"/>
    </contour>
    <contour>
      <point x="68" y="0" type="line" name="ab01"/>
      <point x="342" y="0" type="line" smooth="yes"/>
      <point x="555" y="0"/>
      <point x="699" y="141"/>
      <point x="699" y="350" type="curve" smooth="yes"/>
      <point x="699" y="558"/>
      <point x="554" y="700"/>
      <point x="342" y="700" type="curve" smooth="yes" name="at01"/>
      <point x="68" y="700" type="line"/>
    </contour>
    <contour>
      <point x="-0.279998" y="336" type="line"/>
      <point x="398.082" y="336" type="line"/>
      <point x="398.082" y="370" type="line"/>
      <point x="-0.279998" y="370" type="line"/>
    </contour>
  </outline>
</glyph>
<glyph name="ae" format="2">
  <advance width="996"/>
  <unicode hex="00E6"/>
  <anchor x="506" y="520" name="top"/>
  <anchor x="508" y="-20" name="bottom"/>
  <outline>
    <contour>
      <point x="427" y="0" type="line" name="ab01"/>
      <point x="572" y="0" type="line"/>
      <point x="572" y="500" type="line" name="av01"/>
      <point x="427" y="500" type="line"/>
    </contour>
    <contour>
      <point x="270" y="-20" type="curve" smooth="yes" name="dv01"/>
      <point x="394" y="-20"/>
      <point x="459" y="79"/>
      <point x="459" y="248" type="curve" smooth="yes"/>
      <point x="459" y="423"/>
      <point x="389" y="520"/>
      <point x="261" y="520" type="curve" smooth="yes" name="at01"/>
      <point x="126" y="520"/>
      <point x="50" y="411"/>
      <point x="50" y="259" type="curve" smooth="yes"/>
      <point x="50" y="99"/>
      <point x="135" y="-20"/>
    </contour>
    <contour>
      <point x="311" y="90" type="curve" smooth="yes" name="dv02"/>
      <point x="240" y="90"/>
      <point x="196" y="152"/>
      <point x="196" y="254" type="curve" smooth="yes"/>
      <point x="196" y="353"/>
      <point x="238" y="409"/>
      <point x="308" y="409" type="curve" smooth="yes" name="sv01"/>
      <point x="382" y="409"/>
      <point x="427" y="348"/>
      <point x="427" y="250" type="curve" smooth="yes"/>
      <point x="427" y="153"/>
      <point x="383" y="90"/>
    </contour>
    <contour>
      <point x="575" y="323" type="line" name="sv02"/>
      <point x="584" y="377"/>
      <point x="631" y="410"/>
      <point x="696" y="410" type="curve" smooth="yes" name="sv01"/>
      <point x="761" y="410"/>
      <point x="802" y="377"/>
      <point x="811" y="323" type="curve" name="dv04"/>
    </contour>
    <contour>
      <point x="854" y="145" type="line"/>
      <point x="822" y="110"/>
      <point x="772" y="91"/>
      <point x="711" y="91" type="curve" smooth="yes" name="sv01"/>
      <point x="620" y="91"/>
      <point x="575" y="135"/>
      <point x="575" y="222" type="curve" name="sv04"/>
      <point x="959" y="222" type="line" name="dv03"/>
      <point x="959" y="419"/>
      <point x="872" y="520"/>
      <point x="718" y="520" type="curve" smooth="yes" name="at01"/>
      <point x="567" y="520"/>
      <point x="466" y="422"/>
      <point x="466" y="251" type="curve" smooth="yes" name="sv03"/>
      <point x="466" y="85"/>
      <point x="560" y="-20"/>
      <point x="723" y="-20" type="curve" smooth="yes" name="at01"/>
      <point x="811" y="-20"/>
      <point x="885" y="10"/>
      <point x="932" y="67" type="curve"/>
    </contour>
  </outline>
</glyph>
<glyph name="Eng" format="2">
  <advance width="752"/>
  <unicode hex="014A"/>
  <anchor x="376" y="719" name="top"/>
  <anchor x="390" y="-218" name="bottom"/>
  <outline>
    <contour>
      <point x="77" y="0" type="line"/>
      <point x="223" y="0" type="line" name="ab01"/>
      <point x="223" y="468" type="line" name="iv01"/>
      <point x="539" y="0" type="line" name="ab02"/>
      <point x="675" y="60.7846" type="line"/>
      <point x="675" y="700" type="line" name="at01"/>
      <point x="529" y="700" type="line"/>
      <point x="529" y="232" type="line" name="iv02"/>
      <point x="213" y="700" type="line" name="at02"/>
      <point x="77" y="700" type="line"/>
    </contour>
    <contour>
      <point x="185" y="-79" type="line"/>
      <point x="252" y="-176"/>
      <point x="330" y="-221"/>
      <point x="439" y="-221" type="curve" smooth="yes" name="dv01"/>
      <point x="589" y="-221"/>
      <point x="675" y="-137"/>
      <point x="675" y="21" type="curve" smooth="yes"/>
      <point x="675" y="499" type="line" name="at01"/>
      <point x="529" y="499" type="line"/>
      <point x="529" y="38" type="line" smooth="yes"/>
      <point x="529" y="-50"/>
      <point x="501" y="-101"/>
      <point x="431" y="-101" type="curve" smooth="yes" name="dv02"/>
      <point x="375" y="-101"/>
      <point x="323" y="-69"/>
      <point x="270" y="6" type="curve"/>
    </contour>
  </outline>
</glyph>
<glyph name="Schwa" format="2">
  <advance width="779"/>
  <unicode hex="018F"/>
  <anchor x="390" y="719" name="top"/>
  <anchor x="390" y="-20" name="bottom"/>
  <outline>
    <contour>
      <point x="195" y="294" type="line" name="sh02"/>
      <point x="204" y="175.389"/>
      <point x="280" y="100"/>
      <point x="392" y="100" type="curve" smooth="yes" name="dv02"/>
      <point x="517" y="100"/>
      <point x="587" y="194.378"/>
      <point x="587" y="356.024" type="curve" smooth="yes"/>
      <point x="587" y="521.687"/>
      <point x="514" y="600"/>
      <point x="381" y="600" type="curve" smooth="yes" name="dv03"/>
      <point x="294" y="600"/>
      <point x="232" y="566.629"/>
      <point x="184" y="510" type="curve"/>
      <point x="99" y="595" type="line"/>
      <point x="163" y="674"/>
      <point x="252" y="720"/>
      <point x="379" y="720" type="curve" smooth="yes" name="dv04"/>
      <point x="600" y="720"/>
      <point x="736" y="581"/>
      <point x="736" y="355" type="curve" smooth="yes" name="sh03"/>
      <point x="736" y="129"/>
      <point x="599" y="-20"/>
      <point x="390" y="-20" type="curve" smooth="yes" name="dv01"/>
      <point x="181" y="-20"/>
      <point x="43" y="130"/>
      <point x="43" y="345" type="curve" smooth="yes" name="sh01"/>
      <point x="43" y="371"/>
      <point x="45" y="394"/>
      <point x="47" y="409" type="curve" name="sh04"/>
      <point x="600" y="409" type="line" name="dv06"/>
      <point x="599" y="294" type="line" name="dv05"/>
    </contour>
  </outline>
</glyph>
<glyph name="Delta" format="2">
  <advance width="655"/>
  <unicode hex="0394"/>
  <outline>
    <contour>
      <point x="153" y="0" type="line" name="dv01"/>
      <point x="539.893" y="0" type="line"/>
      <point x="505.893" y="120" type="line" name="dv03"/>
      <point x="187" y="120" type="line" name="dv02"/>
    </contour>
    <contour>
      <point x="17" y="0" type="line"/>
      <point x="170" y="0" type="line"/>
      <point x="371" y="700" type="line"/>
      <point x="244" y="700" type="line"/>
    </contour>
    <contour>
      <point x="485" y="0" type="line"/>
      <point x="638" y="0" type="line"/>
      <point x="411" y="700" type="line"/>
      <point x="284" y="700" type="line"/>
    </contour>
  </outline>
</glyph>
<glyph name="delta" format="2">
  <advance width="616"/>
  <unicode hex="03B4"/>
  <anchor x="308" y="721" name="topgr"/>
  <outline>
    <contour>
      <point x="306" y="90" type="curve" smooth="yes"/>
      <point x="230" y="90"/>
      <point x="194" y="138"/>
      <point x="194" y="220" type="curve" smooth="yes"/>
      <point x="194" y="308"/>
      <point x="236" y="357"/>
      <point x="307" y="357" type="curve" smooth="yes"/>
      <point x="378" y="357"/>
      <point x="422" y="308"/>
      <point x="422" y="220" type="curve" smooth="yes"/>
      <point x="422" y="136"/>
      <point x="381" y="90"/>
    </contour>
    <contour>
      <point x="49" y="226" type="curve" smooth="yes"/>
      <point x="49" y="82"/>
      <point x="143" y="-20"/>
      <point x="309" y="-20" type="curve" smooth="yes"/>
      <point x="470" y="-20"/>
      <point x="567" y="75"/>
      <point x="567" y="226" type="curve" smooth="yes"/>
      <point x="567" y="376"/>
      <point x="471" y="467"/>
      <point x="310" y="467" type="curve" smooth="yes"/>
      <point x="142" y="467"/>
      <point x="49" y="369"/>
    </contour>
    <contour>
      <point x="430" y="446" type="line"/>
      <point x="344" y="482.222"/>
      <point x="261" y="512.407"/>
      <point x="261" y="562.716" type="curve" smooth="yes"/>
      <point x="261" y="587.87"/>
      <point x="281" y="609"/>
      <point x="323" y="609" type="curve" smooth="yes"/>
      <point x="360" y="609"/>
      <point x="400" y="592.636"/>
      <point x="435" y="564" type="curve"/>
      <point x="513" y="642" type="line"/>
      <point x="461" y="690"/>
      <point x="393" y="719"/>
      <point x="312" y="719" type="curve" smooth="yes"/>
      <point x="190" y="719"/>
      <point x="116" y="653"/>
      <point x="116" y="573" type="curve" smooth="yes"/>
      <point x="116" y="483"/>
      <point x="210" y="444"/>
      <point x="305" y="438" type="curve"/>
    </contour>
  </outline>
</glyph>
<glyph name="epsilon" format="2">
  <advance width="505"/>
  <unicode hex="03B5"/>
  <anchor x="253" y="520" name="topgr"/>
  <outline>
    <contour>
      <point x="376" y="167" type="line"/>
      <point x="339" y="116.342"/>
      <point x="304" y="90"/>
      <point x="253" y="90" type="curve" smooth="yes"/>
      <point x="209" y="90"/>
      <point x="184" y="110.171"/>
      <point x="184" y="139.419" type="curve" smooth="yes"/>
      <point x="184" y="180.769"/>
      <point x="237" y="208"/>
      <point x="363" y="208" type="curve"/>
      <point x="363" y="298" type="line"/>
      <point x="237.214" y="298"/>
      <point x="203" y="322.216"/>
      <point x="203" y="360.559" type="curve" smooth="yes"/>
      <point x="203" y="391.838"/>
      <point x="226.14" y="410"/>
      <point x="263.366" y="410" type="curve" smooth="yes"/>
      <point x="304.616" y="410"/>
      <point x="335.805" y="387.651"/>
      <point x="368" y="346" type="curve"/>
      <point x="455" y="433" type="line"/>
      <point x="403" y="492"/>
      <point x="328" y="520"/>
      <point x="246" y="520" type="curve" smooth="yes"/>
      <point x="129" y="520"/>
      <point x="58" y="460.597"/>
      <point x="58" y="379.685" type="curve" smooth="yes"/>
      <point x="58" y="313.113"/>
      <point x="95" y="266"/>
      <point x="224" y="254" type="curve"/>
      <point x="91" y="238"/>
      <point x="39" y="198.909"/>
      <point x="39" y="127.568" type="curve" smooth="yes"/>
      <point x="39" y="34.7273"/>
      <point x="127" y="-20"/>
      <point x="247" y="-20" type="curve" smooth="yes"/>
      <point x="341" y="-20"/>
      <point x="411" y="15"/>
      <point x="463" y="80" type="curve"/>
    </contour>
  </outline>
</glyph>
<glyph name="sigmafinal" format="2">
  <advance width="590"/>
  <unicode hex="03C2"/>
  <anchor x="295" y="520" name="topgr"/>
  <outline>
    <contour>
      <point x="371" y="-200" type="line"/>
      <point x="396" y="-166"/>
      <point x="413" y="-143"/>
      <point x="413" y="-101" type="curve" smooth="yes"/>
      <point x="413" y="-56"/>
      <point x="392.451" y="-20"/>
      <point x="294.841" y="-20" type="curve" smooth="yes"/>
      <point x="128.39" y="-20"/>
      <point x="39" y="86"/>
      <point x="39" y="248" type="curve" smooth="yes"/>
      <point x="39" y="423"/>
      <point x="140" y="520"/>
      <point x="304" y="520" type="curve" smooth="yes" name="at01"/>
      <point x="395" y="520"/>
      <point x="473" y="490"/>
      <point x="523" y="433" type="curve"/>
      <point x="445" y="355" type="line"/>
      <point x="418" y="389.63"/>
      <point x="375" y="410"/>
      <point x="320" y="410" type="curve" smooth="yes" name="sv01"/>
      <point x="231" y="410"/>
      <point x="184" y="356.667"/>
      <point x="184" y="244.969" type="curve" smooth="yes"/>
      <point x="184" y="142.327"/>
      <point x="223" y="90"/>
      <point x="338" y="90" type="curve" smooth="yes"/>
      <point x="482" y="90"/>
      <point x="548" y="9.27835"/>
      <point x="548" y="-82.4055" type="curve" smooth="yes"/>
      <point x="548" y="-139.21"/>
      <point x="523.39" y="-180.069"/>
      <point x="502.567" y="-200" type="curve"/>
    </contour>
  </outline>
</glyph>
<glyph name="upsilon" format="2">
  <advance width="608"/>
  <unicode hex="03C5"/>
  <anchor x="283" y="520" name="topgr"/>
  <outline>
    <contour>
      <point x="66" y="500" type="line"/>
      <point x="66" y="185" type="line" smooth="yes"/>
      <point x="66" y="54"/>
      <point x="157" y="-20"/>
      <point x="306" y="-20" type="curve" smooth="yes"/>
      <point x="477" y="-20"/>
      <point x="559" y="77"/>
      <point x="559" y="252" type="curve" smooth="yes"/>
      <point x="559" y="349"/>
      <point x="534" y="434"/>
      <point x="492" y="500" type="curve"/>
      <point x="353" y="500" type="line"/>
      <point x="388" y="431"/>
      <point x="414" y="357"/>
      <point x="414" y="264" type="curve" smooth="yes"/>
      <point x="414" y="157"/>
      <point x="380" y="90"/>
      <point x="304" y="90" type="curve" smooth="yes"/>
      <point x="245" y="90"/>
      <point x="211" y="131"/>
      <point x="211" y="222" type="curve" smooth="yes"/>
      <point x="211" y="500" type="line"/>
    </contour>
  </outline>
</glyph>
<glyph name="omega" format="2">
  <advance width="832"/>
  <unicode hex="03C9"/>
  <anchor x="416" y="520" name="topgr"/>
  <outline>
    <contour>
      <point x="343" y="361" type="line"/>
      <point x="343" y="192" type="line" smooth="yes"/>
      <point x="343" y="128"/>
      <point x="319" y="92"/>
      <point x="276" y="92" type="curve" smooth="yes"/>
      <point x="216" y="92"/>
      <point x="194" y="162"/>
      <point x="194" y="252" type="curve" smooth="yes"/>
      <point x="194" y="341"/>
      <point x="217" y="410"/>
      <point x="268" y="500" type="curve"/>
      <point x="117" y="500" type="line"/>
      <point x="72" y="422"/>
      <point x="49" y="342"/>
      <point x="49" y="253" type="curve" smooth="yes"/>
      <point x="49" y="84"/>
      <point x="131" y="-20"/>
      <point x="264" y="-20" type="curve" smooth="yes"/>
      <point x="335" y="-20"/>
      <point x="383" y="10"/>
      <point x="416" y="71" type="curve"/>
      <point x="449" y="10"/>
      <point x="497" y="-20"/>
      <point x="568" y="-20" type="curve" smooth="yes"/>
      <point x="701" y="-20"/>
      <point x="783" y="84"/>
      <point x="783" y="251" type="curve" smooth="yes"/>
      <point x="783" y="342"/>
      <point x="758" y="429"/>
      <point x="714" y="500" type="curve"/>
      <point x="564" y="500" type="line"/>
      <point x="607" y="429"/>
      <point x="638" y="351"/>
      <point x="638" y="249" type="curve" smooth="yes"/>
      <point x="638" y="152"/>
      <point x="612" y="92"/>
      <point x="556" y="92" type="curve" smooth="yes"/>
      <point x="512" y="92"/>
      <point x="488" y="128"/>
      <point x="488" y="192" type="curve" smooth="yes"/>
      <point x="488" y="361" type="line"/>
    </contour>
  </outline>
</glyph>
<glyph name="Njecyr" format="2">
  <advance width="990"/>
  <unicode hex="040A"/>
  <outline>
    <contour>
      <point x="78" y="0" type="line" name="ab01"/>
      <point x="224" y="0" type="line"/>
      <point x="224" y="325" type="line" name="dv01"/>
      <point x="482" y="325" type="line"/>
      <point x="482" y="0" type="line" name="ab02"/>
      <point x="628" y="0" type="line"/>
      <point x="628" y="700" type="line" name="at01"/>
      <point x="482" y="700" type="line"/>
      <point x="482" y="445" type="line"/>
      <point x="224" y="445" type="line" name="dv02"/>
      <point x="224" y="700" type="line" name="at02"/>
      <point x="78" y="700" type="line"/>
    </contour>
    <contour>
      <point x="505" y="0" type="line"/>
      <point x="702" y="0" type="line" smooth="yes"/>
      <point x="890" y="0"/>
      <point x="951" y="91.1707"/>
      <point x="951" y="221.415" type="curve" smooth="yes"/>
      <point x="951" y="350.573"/>
      <point x="890" y="445"/>
      <point x="702" y="445" type="curve" smooth="yes"/>
      <point x="525" y="445" type="line"/>
      <point x="540" y="325" type="line"/>
      <point x="663" y="325" type="line" smooth="yes"/>
      <point x="779" y="325"/>
      <point x="806" y="297.265"/>
      <point x="806" y="224.912" type="curve" smooth="yes"/>
      <point x="806" y="146.529"/>
      <point x="775" y="120"/>
      <point x="655" y="120" type="curve" smooth="yes"/>
      <point x="617" y="120" type="line"/>
    </contour>
  </outline>
</glyph>
<glyph name="Elcyr" format="2">
  <advance width="760"/>
  <unicode hex="041B"/>
  <outline>
    <contour>
      <point x="29" y="9" type="line"/>
      <point x="70" y="-9"/>
      <point x="98" y="-20"/>
      <point x="149" y="-20" type="curve" smooth="yes"/>
      <point x="297" y="-20"/>
      <point x="325" y="74"/>
      <point x="325" y="580" type="curve"/>
      <point x="538" y="580" type="line"/>
      <point x="538" y="0" type="line"/>
      <point x="683" y="0" type="line"/>
      <point x="683" y="700" type="line"/>
      <point x="180" y="700" type="line"/>
      <point x="180" y="231"/>
      <point x="169" y="100"/>
      <point x="113" y="100" type="curve" smooth="yes"/>
      <point x="97" y="100"/>
      <point x="81" y="111"/>
      <point x="55" y="130" type="curve"/>
    </contour>
  </outline>
</glyph>
<glyph name="Softcyr" format="2">
  <advance width="633"/>
  <unicode hex="042C"/>
  <outline>
    <contour>
      <point x="77" y="0" type="line"/>
      <point x="343" y="0" type="line" smooth="yes"/>
      <point x="496" y="0"/>
      <point x="594" y="86"/>
      <point x="594" y="220" type="curve" smooth="yes"/>
      <point x="594" y="353"/>
      <point x="496" y="434"/>
      <point x="343" y="434" type="curve" smooth="yes"/>
      <point x="223" y="434" type="line"/>
      <point x="223" y="700" type="line"/>
      <point x="77" y="700" type="line"/>
    </contour>
    <contour>
      <point x="223" y="120" type="line"/>
      <point x="223" y="313" type="line"/>
      <point x="340" y="313" type="line" smooth="yes"/>
      <point x="417" y="313"/>
      <point x="448" y="280"/>
      <point x="448" y="219" type="curve" smooth="yes"/>
      <point x="448" y="158"/>
      <point x="417" y="120"/>
      <point x="340" y="120" type="curve" smooth="yes"/>
    </contour>
  </outline>
</glyph>
<glyph name="elcyr" format="2">
  <advance width="600"/>
  <unicode hex="043B"/>
  <outline>
    <contour>
      <point x="40" y="94" type="line"/>
      <point x="49" y="90"/>
      <point x="56" y="89"/>
      <point x="61" y="89" type="curve" smooth="yes"/>
      <point x="108" y="89"/>
      <point x="117" y="184"/>
      <point x="117" y="500" type="curve"/>
      <point x="527" y="500" type="line"/>
      <point x="527" y="0" type="line"/>
      <point x="382" y="0" type="line"/>
      <point x="382" y="390" type="line"/>
      <point x="262" y="390" type="line"/>
      <point x="262" y="83"/>
      <point x="215" y="-20"/>
      <point x="76" y="-20" type="curve" smooth="yes"/>
      <point x="57" y="-20"/>
      <point x="37" y="-18"/>
      <point x="17" y="-14" type="curve"/>
    </contour>
  </outline>
</glyph>
<glyph name="tsecyr" format="2">
  <advance width="686"/>
  <unicode hex="0446"/>
  <outline>
    <contour>
      <point x="70" y="0" type="line"/>
      <point x="506" y="0" type="line" smooth="yes"/>
      <point x="573" y="0"/>
      <point x="559" y="-72"/>
      <point x="559" y="-140" type="curve"/>
      <point x="665" y="-140" type="line"/>
      <point x="665" y="69"/>
      <point x="644" y="108"/>
      <point x="544" y="108" type="curve"/>
      <point x="544" y="500" type="line"/>
      <point x="399" y="500" type="line"/>
      <point x="399" y="110" type="line"/>
      <point x="215" y="110" type="line"/>
      <point x="215" y="500" type="line"/>
      <point x="70" y="500" type="line"/>
    </contour>
  </outline>
</glyph>
<glyph name="hardcyr" format="2">
  <advance width="600"/>
  <unicode hex="044A"/>
  <outline>
    <contour>
      <point x="21" y="390" type="line"/>
      <point x="179" y="390" type="line"/>
      <point x="212" y="496" type="line"/>
      <point x="212" y="500" type="line"/>
      <point x="21" y="500" type="line"/>
    </contour>
    <contour>
      <point x="134" y="0" type="line"/>
      <point x="357" y="0" type="line" smooth="yes"/>
      <point x="476" y="0"/>
      <point x="550" y="66"/>
      <point x="550" y="171" type="curve" smooth="yes"/>
      <point x="550" y="272"/>
      <point x="477" y="332"/>
      <point x="356" y="332" type="curve" smooth="yes"/>
      <point x="175" y="332" type="line"/>
      <point x="175" y="222" type="line"/>
      <point x="327" y="222" type="line" smooth="yes"/>
      <point x="381" y="222"/>
      <point x="405" y="201"/>
      <point x="405" y="167" type="curve" smooth="yes"/>
      <point x="405" y="131"/>
      <point x="381" y="110"/>
      <point x="327" y="110" type="curve" smooth="yes"/>
      <point x="279" y="110" type="line"/>
      <point x="279" y="500" type="line"/>
      <point x="134" y="500" type="line"/>
    </contour>
  </outline>
</glyph>
<glyph name="Euro" format="2">
  <advance width="730"/>
  <unicode hex="20AC"/>
  <outline>
    <contour>
      <point x="18" y="374" type="line"/>
      <point x="515" y="374" type="line"/>
      <point x="522" y="424" type="line"/>
      <point x="239" y="424" type="line"/>
      <point x="242" y="532"/>
      <point x="324" y="599"/>
      <point x="428" y="599" type="curve" smooth="yes"/>
      <point x="505" y="599"/>
      <point x="577" y="565"/>
      <point x="616" y="514" type="curve"/>
      <point x="701" y="599" type="line"/>
      <point x="633" y="683"/>
      <point x="548" y="720"/>
      <point x="425" y="720" type="curve" smooth="yes"/>
      <point x="249" y="720"/>
      <point x="116" y="606"/>
      <point x="90" y="424" type="curve"/>
      <point x="25" y="424" type="line"/>
    </contour>
    <contour>
      <point x="15" y="280" type="line"/>
      <point x="89" y="280" type="line"/>
      <point x="114" y="97"/>
      <point x="252" y="-20"/>
      <point x="431" y="-20" type="curve" smooth="yes"/>
      <point x="568" y="-20"/>
      <point x="635" y="23"/>
      <point x="706" y="102" type="curve"/>
      <point x="621" y="187" type="line"/>
      <point x="576" y="129"/>
      <point x="501" y="100"/>
      <point x="436" y="100" type="curve" smooth="yes"/>
      <point x="331" y="100"/>
      <point x="242" y="173"/>
      <point x="238" y="280" type="curve"/>
      <point x="498" y="280" type="line"/>
      <point x="505" y="330" type="line"/>
      <point x="22" y="330" type="line"/>
    </contour>
  </outline>
</glyph>
<glyph name="f_f" format="2">
  <advance width="800"/>
  <unicode hex="FB00"/>
  <outline>
    <contour>
      <point x="109" y="0" type="line" name="ab01"/>
      <point x="254" y="0" type="line"/>
      <point x="254" y="390" type="line" name="sv01"/>
      <point x="390" y="390" type="line"/>
      <point x="390" y="500" type="line" name="sv02"/>
      <point x="254" y="500" type="line"/>
      <point x="254" y="569" type="line" smooth="yes"/>
      <point x="254" y="620"/>
      <point x="273" y="637"/>
      <point x="310" y="637" type="curve" smooth="yes" name="dv01"/>
      <point x="326" y="637"/>
      <point x="357" y="634"/>
      <point x="375" y="627" type="curve"/>
      <point x="396" y="728" type="line"/>
      <point x="337" y="746"/>
      <point x="307" y="751"/>
      <point x="276" y="751" type="curve" smooth="yes" name="dv02"/>
      <point x="164" y="751"/>
      <point x="109" y="684"/>
      <point x="109" y="588" type="curve" smooth="yes"/>
      <point x="109" y="500" type="line" name="dv04"/>
      <point x="22" y="500" type="line"/>
      <point x="22" y="390" type="line"/>
      <point x="109" y="390" type="line" name="dv03"/>
    </contour>
    <contour>
      <point x="486" y="0" type="line" name="ab01"/>
      <point x="631" y="0" type="line"/>
      <point x="631" y="390" type="line" name="sv01"/>
      <point x="767" y="390" type="line"/>
      <point x="767" y="500" type="line" name="sv02"/>
      <point x="631" y="500" type="line"/>
      <point x="631" y="569" type="line" smooth="yes"/>
      <point x="631" y="620"/>
      <point x="650" y="637"/>
      <point x="687" y="637" type="curve" smooth="yes" name="dv01"/>
      <point x="703" y="637"/>
      <point x="734" y="634"/>
      <point x="752" y="627" type="curve"/>
      <point x="773" y="728" type="line"/>
      <point x="714" y="746"/>
      <point x="684" y="751"/>
      <point x="653" y="751" type="curve" smooth="yes" name="dv02"/>
      <point x="541" y="751"/>
      <point x="486" y="684"/>
      <point x="486" y="588" type="curve" smooth="yes"/>
      <point x="486" y="500" type="line" name="dv04"/>
      <point x="344.439" y="500" type="line"/>
      <point x="344.439" y="390" type="line"/>
      <point x="486" y="390" type="line" name="dv03"/>
    </contour>
  </outline>
</glyph>
<glyph name="Ccedilla.ss12" format="2">
  <advance width="669"/>
  <anchor x="357" y="719" name="top"/>
  <anchor x="357" y="-217" name="bottom"/>
  <outline>
    <contour>
      <point x="617.677" y="184.728" type="line"/>
      <point x="541.924" y="129.557"/>
      <point x="452.356" y="100"/>
      <point x="375" y="100" type="curve" smooth="yes"/>
      <point x="242.794" y="100"/>
      <point x="188" y="171.933"/>
      <point x="188" y="345.491" type="curve" smooth="yes"/>
      <point x="188" y="525.653"/>
      <point x="243.47" y="600"/>
      <point x="377.89" y="600" type="curve" smooth="yes"/>
      <point x="455.246" y="600"/>
      <point x="541.924" y="569.547"/>
      <point x="617.677" y="515.027" type="curve"/>
      <point x="625.252" y="605.93" type="line"/>
      <point x="577.636" y="671.943"/>
      <point x="470.396" y="720"/>
      <point x="373" y="720" type="curve" smooth="yes"/>
      <point x="167" y="720"/>
      <point x="43" y="569"/>
      <point x="43" y="349" type="curve" smooth="yes"/>
      <point x="43" y="129"/>
      <point x="166" y="-20"/>
      <point x="371" y="-20" type="curve" smooth="yes"/>
      <point x="468.396" y="-20"/>
      <point x="577.636" y="27.8125"/>
      <point x="625.252" y="93.8254" type="curve"/>
    </contour>
    <contour>
      <point x="240" y="-204" type="line"/>
      <point x="264" y="-212"/>
      <point x="298" y="-217"/>
      <point x="337" y="-217" type="curve" smooth="yes"/>
      <point x="432" y="-217"/>
      <point x="481" y="-187"/>
      <point x="481" y="-134" type="curve" smooth="yes"/>
      <point x="481" y="-88"/>
      <point x="445" y="-63"/>
      <point x="383" y="-63" type="curve"/>
      <point x="427.665" y="17.2739" type="line"/>
      <point x="341.665" y="17.2739" type="line"/>
      <point x="284" y="-95" type="line"/>
      <point x="300" y="-93"/>
      <point x="313" y="-91"/>
      <point x="327" y="-91" type="curve" smooth="yes"/>
      <point x="361" y="-91"/>
      <point x="381" y="-104"/>
      <point x="381" y="-131" type="curve" smooth="yes"/>
      <point x="381" y="-157"/>
      <point x="361" y="-171"/>
      <point x="328" y="-171" type="curve" smooth="yes"/>
      <point x="308" y="-171"/>
      <point x="280" y="-166"/>
      <point x="260" y="-160" type="curve"/>
    </contour>
  </outline>
</glyph>
<glyph name="G.ss09" format="2">
  <advance width="780"/>
  <anchor x="390" y="-19" name="bottom"/>
  <anchor x="390" y="719" name="top"/>
  <outline>
    <contour>
      <point x="325" y="250" type="line" name="dv05"/>
      <point x="611" y="250" type="line" name="dv07"/>
      <point x="637" y="237" type="line" name="dv08"/>
      <point x="696" y="0" type="line" name="dv15"/>
      <point x="737" y="0" type="line" name="dv14"/>
      <point x="737" y="360" type="line" name="iv02"/>
      <point x="325" y="360" type="line" name="dv06"/>
    </contour>
    <contour>
      <point x="597" y="324" type="line" name="iv01"/>
      <point x="579" y="181.363"/>
      <point x="522" y="100"/>
      <point x="394" y="100" type="curve" smooth="yes" name="dv02"/>
      <point x="261" y="100"/>
      <point x="188" y="188.353"/>
      <point x="188" y="343.976" type="curve" smooth="yes" name="dv12"/>
      <point x="188" y="498.594"/>
      <point x="260" y="600"/>
      <point x="403" y="600" type="curve" smooth="yes"/>
      <point x="490" y="600"/>
      <point x="549" y="562.675"/>
      <point x="577" y="485" type="curve"/>
      <point x="720" y="485" type="line"/>
      <point x="672" y="637"/>
      <point x="563" y="720"/>
      <point x="401" y="720" type="curve" smooth="yes"/>
      <point x="178" y="720"/>
      <point x="43" y="564"/>
      <point x="43" y="351" type="curve" smooth="yes" name="dv11"/>
      <point x="43" y="128.4"/>
      <point x="174.2" y="-20"/>
      <point x="371" y="-20" type="curve" smooth="yes" name="dv01"/>
      <point x="522" y="-20"/>
      <point x="620" y="79"/>
      <point x="648" y="236" type="curve" name="dv10"/>
    </contour>
  </outline>
</glyph>
<glyph name="G.ss10" format="2">
  <advance width="770"/>
  <anchor x="394" y="-19" name="bottom"/>
  <anchor x="394" y="719" name="top"/>
  <outline>
    <contour>
      <point x="363" y="252" type="line"/>
      <point x="624" y="252" type="line"/>
      <point x="687" y="0" type="line"/>
      <point x="727" y="0" type="line"/>
      <point x="727" y="362" type="line"/>
      <point x="363" y="362" type="line"/>
    </contour>
    <contour>
      <point x="599" y="344" type="line"/>
      <point x="599" y="339.984"/>
      <point x="600" y="318.897"/>
      <point x="600" y="315.885" type="curve"/>
      <point x="591" y="186.354"/>
      <point x="512" y="100"/>
      <point x="394" y="100" type="curve" smooth="yes"/>
      <point x="263.472" y="100"/>
      <point x="190" y="192.57"/>
      <point x="190" y="357.028" type="curve" smooth="yes"/>
      <point x="190" y="513.575"/>
      <point x="263.63" y="600"/>
      <point x="397" y="600" type="curve" smooth="yes"/>
      <point x="488" y="600"/>
      <point x="563" y="565.779"/>
      <point x="650" y="445" type="curve"/>
      <point x="689" y="583" type="line"/>
      <point x="615" y="673"/>
      <point x="511" y="720"/>
      <point x="388" y="720" type="curve" smooth="yes"/>
      <point x="177" y="720"/>
      <point x="43" y="577"/>
      <point x="43" y="356" type="curve" smooth="yes"/>
      <point x="43" y="130.4"/>
      <point x="176.2" y="-20"/>
      <point x="376" y="-20" type="curve" smooth="yes"/>
      <point x="533" y="-20"/>
      <point x="620" y="79"/>
      <point x="648" y="221" type="curve"/>
    </contour>
  </outline>
</glyph>
<glyph name="G.ss14" format="2">
  <advance width="775"/>
  <anchor x="388" y="-19" name="bottom"/>
  <anchor x="388" y="719" name="top"/>
  <outline>
    <contour>
      <point x="369" y="251" type="line"/>
      <point x="598" y="251" type="line"/>
      <point x="584.904" y="156.373"/>
      <point x="513.381" y="100"/>
      <point x="407.607" y="100" type="curve" smooth="yes"/>
      <point x="267.582" y="100"/>
      <point x="188" y="191.365"/>
      <point x="188" y="351.004" type="curve" smooth="yes"/>
      <point x="188" y="507.631"/>
      <point x="269.534" y="600"/>
      <point x="406.431" y="600" type="curve" smooth="yes"/>
      <point x="499.037" y="600"/>
      <point x="567.486" y="560.747"/>
      <point x="646" y="445" type="curve"/>
      <point x="685" y="583" type="line"/>
      <point x="616.787" y="671"/>
      <point x="521.491" y="720"/>
      <point x="402.119" y="720" type="curve" smooth="yes"/>
      <point x="186.447" y="720"/>
      <point x="43" y="569"/>
      <point x="43" y="354" type="curve" smooth="yes"/>
      <point x="43" y="141"/>
      <point x="175.448" y="-20"/>
      <point x="384.154" y="-20" type="curve" smooth="yes"/>
      <point x="586.84" y="-20"/>
      <point x="634" y="163.531"/>
      <point x="634" y="349.056" type="curve" smooth="yes"/>
      <point x="634" y="371" type="line"/>
      <point x="369" y="371" type="line"/>
    </contour>
    <contour>
      <point x="598" y="0" type="line"/>
      <point x="719" y="0" type="line"/>
      <point x="719" y="371" type="line"/>
      <point x="598" y="371" type="line"/>
    </contour>
  </outline>
</glyph>
<glyph name="Germandbls.ss09" format="2">
  <advance width="723"/>
  <outline>
    <contour>
      <point x="74" y="0" type="line"/>
      <point x="220" y="0" type="line"/>
      <point x="220" y="451" type="line" smooth="yes"/>
      <point x="220" y="546"/>
      <point x="269" y="599"/>
      <point x="362" y="599" type="curve" smooth="yes"/>
      <point x="393" y="599"/>
      <point x="407" y="593"/>
      <point x="416" y="588" type="curve"/>
      <point x="354" y="527" type="line" smooth="yes"/>
      <point x="315" y="488"/>
      <point x="286" y="453"/>
      <point x="286" y="397" type="curve" smooth="yes"/>
      <point x="286" y="230"/>
      <point x="538" y="281"/>
      <point x="538" y="160" type="curve" smooth="yes"/>
      <point x="538" y="121"/>
      <point x="511" y="101"/>
      <point x="465" y="101" type="curve" smooth="yes"/>
      <point x="421" y="101"/>
      <point x="394" y="120"/>
      <point x="392" y="157" type="curve"/>
      <point x="251" y="157" type="line"/>
      <point x="269" y="38"/>
      <point x="339" y="-20"/>
      <point x="466" y="-20" type="curve" smooth="yes"/>
      <point x="606" y="-20"/>
      <point x="684" y="50"/>
      <point x="684" y="164" type="curve" smooth="yes"/>
      <point x="684" y="354"/>
      <point x="430" y="320"/>
      <point x="430" y="424" type="curve" smooth="yes"/>
      <point x="430" y="466"/>
      <point x="471" y="495"/>
      <point x="491" y="515" type="curve" smooth="yes"/>
      <point x="620" y="639" type="line"/>
      <point x="556" y="691"/>
      <point x="466" y="720"/>
      <point x="358" y="720" type="curve" smooth="yes"/>
      <point x="173" y="720"/>
      <point x="74" y="634"/>
      <point x="74" y="489" type="curve" smooth="yes"/>
    </contour>
  </outline>
</glyph>
<glyph name="Germandbls.ss12" format="2">
  <advance width="693"/>
  <outline>
    <contour>
      <point x="74" y="0" type="line"/>
      <point x="220" y="0" type="line"/>
      <point x="220" y="447" type="line" smooth="yes"/>
      <point x="220" y="550"/>
      <point x="260" y="599"/>
      <point x="343" y="599" type="curve" smooth="yes"/>
      <point x="375" y="599"/>
      <point x="393" y="592"/>
      <point x="414" y="579" type="curve"/>
      <point x="359" y="533" type="line" smooth="yes"/>
      <point x="303" y="487"/>
      <point x="274" y="449"/>
      <point x="274" y="395" type="curve" smooth="yes"/>
      <point x="274" y="319.729"/>
      <point x="334.528" y="287.654"/>
      <point x="394.015" y="260.231" type="curve" smooth="yes"/>
      <point x="451.493" y="233.735"/>
      <point x="508" y="211.581"/>
      <point x="508" y="159" type="curve" smooth="yes"/>
      <point x="508" y="124"/>
      <point x="483" y="100"/>
      <point x="451" y="100" type="curve" smooth="yes"/>
      <point x="399" y="100"/>
      <point x="343" y="114"/>
      <point x="271" y="192" type="curve"/>
      <point x="261" y="97" type="line"/>
      <point x="309" y="22"/>
      <point x="377" y="-20"/>
      <point x="467" y="-20" type="curve" smooth="yes"/>
      <point x="596" y="-20"/>
      <point x="654" y="69"/>
      <point x="654" y="150" type="curve" smooth="yes"/>
      <point x="654" y="254.457"/>
      <point x="575.572" y="296.109"/>
      <point x="507.283" y="331.118" type="curve" smooth="yes"/>
      <point x="454.628" y="358.112"/>
      <point x="408" y="381.157"/>
      <point x="408" y="426" type="curve" smooth="yes"/>
      <point x="408" y="454"/>
      <point x="426" y="478"/>
      <point x="465" y="512" type="curve" smooth="yes"/>
      <point x="610" y="640" type="line"/>
      <point x="535" y="694"/>
      <point x="443" y="720"/>
      <point x="349" y="720" type="curve" smooth="yes"/>
      <point x="167" y="720"/>
      <point x="74" y="623"/>
      <point x="74" y="489" type="curve" smooth="yes"/>
    </contour>
  </outline>
</glyph>
<glyph name="J.ss09" format="2">
  <advance width="584"/>
  <anchor x="274" y="-20" name="bottom"/>
  <anchor x="453" y="719" name="top"/>
  <outline>
    <contour>
      <point x="30" y="195" type="line"/>
      <point x="56.9724" y="45"/>
      <point x="127.9" y="-20"/>
      <point x="270.754" y="-20" type="curve" smooth="yes"/>
      <point x="443.578" y="-20"/>
      <point x="519.5" y="75"/>
      <point x="519.5" y="252" type="curve" smooth="yes"/>
      <point x="519.5" y="700" type="line"/>
      <point x="374.5" y="700" type="line"/>
      <point x="374.5" y="255.259" type="line" smooth="yes"/>
      <point x="374.5" y="136.06"/>
      <point x="337.408" y="100"/>
      <point x="269.239" y="100" type="curve" smooth="yes"/>
      <point x="212.097" y="100"/>
      <point x="183.025" y="126"/>
      <point x="173" y="195" type="curve"/>
    </contour>
  </outline>
</glyph>
<glyph name="Yacyr.ss08" format="2">
  <advance width="645"/>
  <anchor x="322" y="719" name="top"/>
  <anchor x="322" y="-20" name="bottom"/>
  <outline>
    <contour>
      <point x="431" y="0" type="line"/>
      <point x="577" y="0" type="line"/>
      <point x="577" y="700" type="line"/>
      <point x="302.166" y="700" type="line" smooth="yes"/>
      <point x="146.6" y="700"/>
      <point x="46" y="611"/>
      <point x="46" y="474" type="curve" smooth="yes"/>
      <point x="46" y="341"/>
      <point x="160.658" y="244"/>
      <point x="318.445" y="244" type="curve" smooth="yes"/>
      <point x="431" y="244" type="line"/>
    </contour>
    <contour>
      <point x="431" y="364" type="line"/>
      <point x="337.849" y="364" type="line" smooth="yes"/>
      <point x="241.411" y="364"/>
      <point x="191" y="399"/>
      <point x="191" y="469" type="curve" smooth="yes"/>
      <point x="191" y="542"/>
      <point x="241.411" y="580"/>
      <point x="337.849" y="580" type="curve" smooth="yes"/>
      <point x="431" y="580" type="line"/>
    </contour>
    <contour>
      <point x="210" y="0" type="line"/>
      <point x="225" y="60"/>
      <point x="208" y="143"/>
      <point x="225" y="183" type="curve" smooth="yes"/>
      <point x="246" y="232"/>
      <point x="297" y="242"/>
      <point x="350" y="244" type="curve"/>
      <point x="249" y="305" type="line"/>
      <point x="153" y="279"/>
      <point x="111" y="273"/>
      <point x="86" y="222" type="curve" smooth="yes"/>
      <point x="61" y="171"/>
      <point x="81" y="56"/>
      <point x="61" y="0" type="curve"/>
    </contour>
  </outline>
</glyph>
<glyph name="alpha.ss01" format="2">
  <advance width="670"/>
  <anchor x="300" y="519" name="topgr"/>
  <outline>
    <contour>
      <point x="628" y="0" type="line"/>
      <point x="590" y="0" type="line" smooth="yes"/>
      <point x="471" y="0"/>
      <point x="427" y="47"/>
      <point x="427" y="153" type="curve" smooth="yes"/>
      <point x="427" y="500" type="line"/>
      <point x="572" y="500" type="line"/>
      <point x="572" y="187" type="line" smooth="yes"/>
      <point x="572" y="125"/>
      <point x="581" y="110"/>
      <point x="628" y="110" type="curve"/>
    </contour>
    <contour>
      <point x="269.231" y="-20" type="curve" smooth="yes" name="dv01"/>
      <point x="135.396" y="-20"/>
      <point x="50.5" y="99"/>
      <point x="50.5" y="259" type="curve" smooth="yes"/>
      <point x="50.5" y="411"/>
      <point x="126.407" y="520"/>
      <point x="260.242" y="520" type="curve" smooth="yes" name="at01"/>
      <point x="385.088" y="520"/>
      <point x="457" y="426"/>
      <point x="457" y="248" type="curve" smooth="yes"/>
      <point x="457" y="79"/>
      <point x="392.08" y="-20"/>
    </contour>
    <contour>
      <point x="313.755" y="90" type="curve" smooth="yes" name="dv02"/>
      <point x="379.898" y="90"/>
      <point x="427" y="153.197"/>
      <point x="427" y="249.498" type="curve" smooth="yes"/>
      <point x="427" y="348.809"/>
      <point x="377.894" y="410"/>
      <point x="310.749" y="410" type="curve" smooth="yes" name="sv01"/>
      <point x="241.6" y="410"/>
      <point x="195.5" y="343.793"/>
      <point x="195.5" y="253.511" type="curve" smooth="yes"/>
      <point x="195.5" y="162.226"/>
      <point x="242.602" y="90"/>
    </contour>
  </outline>
</glyph>
<glyph name="brevecy" format="2">
  <advance width="336"/>
  <anchor x="168" y="500" name="_top"/>
  <anchor x="168" y="680" name="top"/>
  <outline>
    <contour>
      <point x="29" y="700" type="line"/>
      <point x="38.8182" y="608.125"/>
      <point x="89" y="553"/>
      <point x="170" y="553" type="curve" smooth="yes"/>
      <point x="254" y="553"/>
      <point x="301.738" y="612.719"/>
      <point x="310" y="700" type="curve"/>
      <point x="231" y="700" type="line"/>
      <point x="226" y="652"/>
      <point x="203" y="624"/>
      <point x="167" y="624" type="curve" smooth="yes"/>
      <point x="134" y="624"/>
      <point x="113" y="648"/>
      <point x="108" y="700" type="curve"/>
    </contour>
  </outline>
</glyph>
<glyph name="d.ss11" format="2">
  <advance width="635"/>
  <anchor x="305" y="-20" name="bottom"/>
  <anchor x="318" y="750" name="top"/>
  <anchor x="593" y="700" name="topright"/>
  <outline>
    <contour>
      <point x="562" y="-10" type="line"/>
      <point x="562" y="700" type="line"/>
      <point x="417" y="700" type="line"/>
      <point x="417" y="83" type="line"/>
    </contour>
    <contour>
      <point x="295" y="90" type="curve" smooth="yes"/>
      <point x="234" y="90"/>
      <point x="196" y="154.201"/>
      <point x="196" y="255.517" type="curve" smooth="yes"/>
      <point x="196" y="352.821"/>
      <point x="233" y="410"/>
      <point x="295" y="410" type="curve" smooth="yes"/>
      <point x="368" y="410"/>
      <point x="417" y="352.821"/>
      <point x="417" y="256.52" type="curve" smooth="yes"/>
      <point x="417" y="160.219"/>
      <point x="365" y="90"/>
    </contour>
    <contour>
      <point x="266" y="-20" type="curve" smooth="yes"/>
      <point x="384" y="-20"/>
      <point x="449" y="79"/>
      <point x="449" y="255" type="curve" smooth="yes"/>
      <point x="449" y="431"/>
      <point x="385" y="520"/>
      <point x="266" y="520" type="curve" smooth="yes"/>
      <point x="132" y="520"/>
      <point x="50" y="419"/>
      <point x="50" y="255" type="curve" smooth="yes"/>
      <point x="50" y="88"/>
      <point x="135" y="-20"/>
    </contour>
  </outline>
</glyph>
<glyph name="decyr.ss08" format="2">
  <advance width="781"/>
  <outline>
    <contour>
      <point x="142" y="86" type="line"/>
      <point x="297" y="86" type="line"/>
      <point x="391" y="359" type="line"/>
      <point x="485" y="86" type="line"/>
      <point x="640" y="86" type="line"/>
      <point x="471" y="500" type="line"/>
      <point x="311" y="500" type="line"/>
    </contour>
    <contour>
      <point x="147" y="-140" type="line"/>
      <point x="148" y="-107"/>
      <point x="133" y="0"/>
      <point x="193" y="0" type="curve" smooth="yes"/>
      <point x="583" y="0" type="line" smooth="yes"/>
      <point x="650" y="0"/>
      <point x="635" y="-102"/>
      <point x="635" y="-140" type="curve"/>
      <point x="741" y="-140" type="line"/>
      <point x="741" y="50"/>
      <point x="720" y="111"/>
      <point x="622" y="111" type="curve" smooth="yes"/>
      <point x="159" y="111" type="line" smooth="yes"/>
      <point x="61" y="111"/>
      <point x="40" y="50"/>
      <point x="40" y="-140" type="curve"/>
    </contour>
  </outline>
</glyph>
<glyph name="dollar.ss09" format="2">
  <advance width="590"/>
  <outline>
    <contour>
      <point x="33" y="206.407" type="line"/>
      <point x="57" y="82.4155"/>
      <point x="146" y="0.0699999"/>
      <point x="304" y="0.0699999" type="curve" smooth="yes"/>
      <point x="461" y="0.0699999"/>
      <point x="551" y="82.5485"/>
      <point x="551" y="194.416" type="curve" smooth="yes"/>
      <point x="551" y="339.047"/>
      <point x="435.426" y="371.689"/>
      <point x="334.885" y="400.085" type="curve" smooth="yes"/>
      <point x="257.488" y="421.945"/>
      <point x="188" y="441.288"/>
      <point x="188" y="507.266" type="curve" smooth="yes"/>
      <point x="188" y="554.667"/>
      <point x="220" y="586.9"/>
      <point x="290" y="586.9" type="curve" smooth="yes"/>
      <point x="352" y="586.9"/>
      <point x="385" y="560.398"/>
      <point x="398" y="494.143" type="curve"/>
      <point x="541" y="494.143" type="line"/>
      <point x="517" y="618.135"/>
      <point x="435" y="700.48"/>
      <point x="284" y="700.48" type="curve" smooth="yes"/>
      <point x="132" y="700.48"/>
      <point x="43" y="618.001"/>
      <point x="43" y="503.29" type="curve" smooth="yes"/>
      <point x="43" y="368.747"/>
      <point x="156.905" y="335.329"/>
      <point x="256.927" y="305.984" type="curve" smooth="yes"/>
      <point x="335.216" y="283.015"/>
      <point x="406" y="262.542"/>
      <point x="406" y="198.025" type="curve" smooth="yes"/>
      <point x="406" y="145.883"/>
      <point x="373" y="113.65"/>
      <point x="297" y="113.65" type="curve" smooth="yes"/>
      <point x="229" y="113.65"/>
      <point x="190" y="140.152"/>
      <point x="176" y="206.407" type="curve"/>
    </contour>
    <contour>
      <point x="267" y="-99" type="line"/>
      <point x="305" y="-99" type="line"/>
      <point x="305" y="782" type="line"/>
      <point x="267" y="782" type="line"/>
    </contour>
  </outline>
</glyph>
<glyph name="eogonek.ss10" format="2">
  <advance width="585"/>
  <anchor x="297" y="520" name="top"/>
  <anchor x="297" y="-20" name="bottom"/>
  <outline>
    <contour>
      <point x="400" y="311" type="line"/>
      <point x="400" y="355"/>
      <point x="370" y="410"/>
      <point x="295" y="410" type="curve" smooth="yes"/>
      <point x="222" y="410"/>
      <point x="184" y="359"/>
      <point x="184" y="311" type="curve"/>
    </contour>
    <contour>
      <point x="183" y="218" type="line"/>
      <point x="183" y="132"/>
      <point x="239" y="90"/>
      <point x="318" y="90" type="curve" smooth="yes"/>
      <point x="394" y="90"/>
      <point x="446" y="122"/>
      <point x="496" y="201" type="curve"/>
      <point x="530" y="83" type="line"/>
      <point x="484.093" y="18"/>
      <point x="406.252" y="-20"/>
      <point x="303.92" y="-20" type="curve" smooth="yes"/>
      <point x="129.813" y="-20"/>
      <point x="38" y="90"/>
      <point x="38" y="255" type="curve" smooth="yes"/>
      <point x="38" y="410"/>
      <point x="138.802" y="520"/>
      <point x="297.491" y="520" type="curve" smooth="yes"/>
      <point x="455.182" y="520"/>
      <point x="548" y="410"/>
      <point x="548" y="218" type="curve"/>
    </contour>
    <contour>
      <point x="352" y="-206" type="line"/>
      <point x="279" y="-196"/>
      <point x="235" y="-159"/>
      <point x="235" y="-109" type="curve" smooth="yes"/>
      <point x="235" y="-56"/>
      <point x="286" y="-14"/>
      <point x="375" y="2" type="curve"/>
      <point x="408" y="-1" type="line"/>
      <point x="369" y="-25"/>
      <point x="345" y="-67"/>
      <point x="345" y="-104" type="curve" smooth="yes"/>
      <point x="345" y="-138"/>
      <point x="366" y="-169"/>
      <point x="409" y="-183" type="curve"/>
    </contour>
  </outline>
</glyph>
<glyph name="eogonek.ss12" format="2">
  <advance width="585"/>
  <anchor x="298" y="520" name="top"/>
  <anchor x="298" y="-20" name="bottom"/>
  <outline>
    <contour>
      <point x="399" y="318" type="line"/>
      <point x="399" y="369"/>
      <point x="358" y="409"/>
      <point x="296" y="409" type="curve" smooth="yes"/>
      <point x="231" y="409"/>
      <point x="188" y="368"/>
      <point x="188" y="318" type="curve"/>
    </contour>
    <contour>
      <point x="185" y="236" type="line"/>
      <point x="185" y="144"/>
      <point x="244" y="90"/>
      <point x="343" y="90" type="curve" smooth="yes"/>
      <point x="407" y="90"/>
      <point x="461" y="117"/>
      <point x="512" y="174" type="curve"/>
      <point x="519" y="91" type="line"/>
      <point x="456" y="15"/>
      <point x="391" y="-20"/>
      <point x="312" y="-20" type="curve" smooth="yes"/>
      <point x="141" y="-20"/>
      <point x="38" y="93"/>
      <point x="38" y="255" type="curve" smooth="yes"/>
      <point x="38" y="410"/>
      <point x="140" y="520"/>
      <point x="298" y="520" type="curve" smooth="yes"/>
      <point x="450" y="520"/>
      <point x="548" y="416"/>
      <point x="548" y="236" type="curve"/>
    </contour>
    <contour>
      <point x="351" y="-205" type="line"/>
      <point x="278" y="-195"/>
      <point x="234" y="-158"/>
      <point x="234" y="-108" type="curve" smooth="yes"/>
      <point x="234" y="-55"/>
      <point x="285" y="-13"/>
      <point x="374" y="3" type="curve"/>
      <point x="407" y="0" type="line"/>
      <point x="368" y="-24"/>
      <point x="344" y="-66"/>
      <point x="344" y="-103" type="curve" smooth="yes"/>
      <point x="344" y="-137"/>
      <point x="365" y="-168"/>
      <point x="408" y="-182" type="curve"/>
    </contour>
  </outline>
</glyph>
<glyph name="ereversedcyr.ss12" format="2">
  <advance width="570"/>
  <anchor x="278" y="520" name="top"/>
  <anchor x="278" y="-20" name="bottom"/>
  <outline>
    <contour>
      <point x="50" y="91" type="line"/>
      <point x="113" y="15"/>
      <point x="178" y="-20"/>
      <point x="257" y="-20" type="curve" smooth="yes"/>
      <point x="426" y="-20"/>
      <point x="521" y="91"/>
      <point x="521" y="255" type="curve" smooth="yes"/>
      <point x="521" y="411"/>
      <point x="424" y="520"/>
      <point x="256" y="520" type="curve" smooth="yes"/>
      <point x="173" y="520"/>
      <point x="102" y="486"/>
      <point x="49" y="421" type="curve"/>
      <point x="56" y="337" type="line"/>
      <point x="124" y="391"/>
      <point x="168" y="410"/>
      <point x="227" y="410" type="curve" smooth="yes"/>
      <point x="326" y="410"/>
      <point x="376" y="353"/>
      <point x="376" y="255" type="curve" smooth="yes"/>
      <point x="376" y="155"/>
      <point x="322" y="90"/>
      <point x="226" y="90" type="curve" smooth="yes"/>
      <point x="162" y="90"/>
      <point x="108" y="117"/>
      <point x="57" y="174" type="curve"/>
    </contour>
    <contour>
      <point x="159" y="209" type="line"/>
      <point x="433" y="209" type="line"/>
      <point x="433" y="294" type="line"/>
      <point x="159" y="294" type="line"/>
    </contour>
  </outline>
</glyph>
<glyph name="f.ss11" format="2">
  <advance width="423"/>
  <anchor x="250" y="750" name="top"/>
  <anchor x="183" y="-20" name="bottom"/>
  <outline>
    <contour>
      <point x="109" y="0" type="line"/>
      <point x="254" y="0" type="line"/>
      <point x="254" y="390" type="line"/>
      <point x="380" y="390" type="line"/>
      <point x="380" y="500" type="line"/>
      <point x="254" y="500" type="line"/>
      <point x="254" y="549.45" type="line" smooth="yes"/>
      <point x="254" y="588.807"/>
      <point x="278" y="610"/>
      <point x="319" y="610" type="curve" smooth="yes"/>
      <point x="334" y="610"/>
      <point x="355" y="605.636"/>
      <point x="396" y="598" type="curve"/>
      <point x="396" y="707" type="line"/>
      <point x="349" y="716"/>
      <point x="325" y="720"/>
      <point x="277" y="720" type="curve" smooth="yes"/>
      <point x="169" y="720"/>
      <point x="109" y="669"/>
      <point x="109" y="577" type="curve" smooth="yes"/>
      <point x="109" y="500" type="line"/>
      <point x="22" y="500" type="line"/>
      <point x="22" y="390" type="line"/>
      <point x="109" y="390" type="line"/>
    </contour>
  </outline>
</glyph>
<glyph name="germandbls.ss09" format="2">
  <advance width="710"/>
  <outline>
    <contour>
      <point x="74" y="0" type="line"/>
      <point x="74" y="535" type="line" smooth="yes"/>
      <point x="74" y="685"/>
      <point x="177" y="751"/>
      <point x="316" y="751" type="curve" smooth="yes"/>
      <point x="447" y="751"/>
      <point x="548" y="692"/>
      <point x="548" y="573" type="curve" smooth="yes"/>
      <point x="548" y="461"/>
      <point x="457" y="446"/>
      <point x="457" y="374" type="curve" smooth="yes"/>
      <point x="457" y="267"/>
      <point x="662" y="299"/>
      <point x="662" y="141" type="curve" smooth="yes"/>
      <point x="662" y="29"/>
      <point x="573" y="-20"/>
      <point x="449" y="-20" type="curve" smooth="yes"/>
      <point x="337" y="-20"/>
      <point x="267" y="20"/>
      <point x="257" y="127" type="curve"/>
      <point x="401" y="127" type="line"/>
      <point x="409" y="101"/>
      <point x="427" y="90"/>
      <point x="458" y="90" type="curve" smooth="yes"/>
      <point x="502" y="90"/>
      <point x="517" y="114"/>
      <point x="517" y="140" type="curve" smooth="yes"/>
      <point x="517" y="213"/>
      <point x="312" y="195"/>
      <point x="312" y="357" type="curve" smooth="yes"/>
      <point x="312" y="465"/>
      <point x="404" y="475"/>
      <point x="404" y="560" type="curve" smooth="yes"/>
      <point x="404" y="611"/>
      <point x="371" y="641"/>
      <point x="319" y="641" type="curve" smooth="yes"/>
      <point x="250" y="641"/>
      <point x="219" y="587"/>
      <point x="219" y="482" type="curve" smooth="yes"/>
      <point x="219" y="0" type="line"/>
    </contour>
  </outline>
</glyph>
<glyph name="germandbls.ss10" format="2">
  <advance width="730"/>
  <outline>
    <contour>
      <point x="74" y="0" type="line"/>
      <point x="74" y="535" type="line" smooth="yes"/>
      <point x="74" y="686"/>
      <point x="179" y="751"/>
      <point x="317" y="751" type="curve" smooth="yes"/>
      <point x="458" y="751"/>
      <point x="551" y="684"/>
      <point x="551" y="562" type="curve" smooth="yes"/>
      <point x="551" y="438"/>
      <point x="454" y="430"/>
      <point x="454" y="378" type="curve" smooth="yes"/>
      <point x="454" y="298"/>
      <point x="682" y="295"/>
      <point x="682" y="141" type="curve" smooth="yes"/>
      <point x="682" y="49"/>
      <point x="619" y="-20"/>
      <point x="484" y="-20" type="curve" smooth="yes"/>
      <point x="382" y="-20"/>
      <point x="307" y="20"/>
      <point x="260" y="97" type="curve"/>
      <point x="293" y="215" type="line"/>
      <point x="344" y="132"/>
      <point x="408" y="90"/>
      <point x="477" y="90" type="curve" smooth="yes"/>
      <point x="519" y="90"/>
      <point x="537" y="106"/>
      <point x="537" y="131" type="curve" smooth="yes"/>
      <point x="537" y="219"/>
      <point x="310" y="220"/>
      <point x="310" y="361" type="curve" smooth="yes"/>
      <point x="310" y="453"/>
      <point x="406" y="469"/>
      <point x="406" y="557" type="curve" smooth="yes"/>
      <point x="406" y="613"/>
      <point x="368" y="640"/>
      <point x="320" y="640" type="curve" smooth="yes"/>
      <point x="258" y="640"/>
      <point x="219" y="606"/>
      <point x="219" y="523" type="curve" smooth="yes"/>
      <point x="219" y="0" type="line"/>
    </contour>
  </outline>
</glyph>
<glyph name="hardcyr.loclBGR" format="2">
  <advance width="600"/>
  <outline>
    <contour>
      <point x="175" y="222" type="line"/>
      <point x="327" y="222" type="line" smooth="yes"/>
      <point x="381" y="222"/>
      <point x="405" y="197.25"/>
      <point x="405" y="157.179" type="curve" smooth="yes"/>
      <point x="405" y="111.317"/>
      <point x="384.594" y="90"/>
      <point x="340.694" y="90" type="curve" smooth="yes"/>
      <point x="297.581" y="90"/>
      <point x="278.868" y="108.128"/>
      <point x="278.882" y="149.923" type="curve" smooth="yes"/>
      <point x="279" y="500" type="line"/>
      <point x="134" y="500" type="line"/>
      <point x="133.882" y="157.84" type="line" smooth="yes"/>
      <point x="133.842" y="41.3476"/>
      <point x="206.811" y="-20"/>
      <point x="345.296" y="-20" type="curve" smooth="yes"/>
      <point x="474.298" y="-20"/>
      <point x="550" y="47.0471"/>
      <point x="550" y="161.301" type="curve" smooth="yes"/>
      <point x="550" y="268.386"/>
      <point x="477" y="332"/>
      <point x="356" y="332" type="curve" smooth="yes"/>
      <point x="175" y="332" type="line"/>
    </contour>
    <contour>
      <point x="21" y="390" type="line"/>
      <point x="179" y="390" type="line"/>
      <point x="212" y="500" type="line"/>
      <point x="21" y="500" type="line"/>
    </contour>
  </outline>
</glyph>
<glyph name="k.ss11" format="2">
  <advance width="592"/>
  <anchor x="142" y="750" name="top"/>
  <anchor x="296" y="-20" name="bottom"/>
  <outline>
    <contour>
      <point x="69" y="0" type="line"/>
      <point x="214" y="0" type="line"/>
      <point x="214" y="700" type="line"/>
      <point x="69" y="700" type="line"/>
    </contour>
    <contour>
      <point x="111" y="253" type="line"/>
      <point x="318" y="253" type="line" name="iv01"/>
      <point x="410" y="0" type="line" name="ab02"/>
      <point x="572" y="0" type="line"/>
      <point x="434" y="283" type="line"/>
      <point x="559" y="500" type="line" name="av02"/>
      <point x="419" y="500" type="line"/>
      <point x="337" y="358" type="line" name="iv02"/>
      <point x="110" y="358" type="line"/>
    </contour>
  </outline>
</glyph>
<glyph name="oe.ss09" format="2">
  <advance width="954"/>
  <outline>
    <contour>
      <point x="297.84" y="-20" type="curve" smooth="yes" name="dv01"/>
      <point x="468.36" y="-20"/>
      <point x="551.66" y="84"/>
      <point x="551.66" y="255" type="curve" smooth="yes"/>
      <point x="551.66" y="416"/>
      <point x="467.38" y="520"/>
      <point x="297.84" y="520" type="curve" smooth="yes" name="at01"/>
      <point x="139.08" y="520"/>
      <point x="44.02" y="416"/>
      <point x="44.02" y="255" type="curve" smooth="yes"/>
      <point x="44.02" y="84"/>
      <point x="140.06" y="-20"/>
    </contour>
    <contour>
      <point x="297.84" y="90" type="curve" smooth="yes" name="dv02"/>
      <point x="227.28" y="90"/>
      <point x="189.06" y="146.352"/>
      <point x="189.06" y="255.031" type="curve" smooth="yes"/>
      <point x="189.06" y="359.686"/>
      <point x="224.34" y="410"/>
      <point x="297.84" y="410" type="curve" smooth="yes" name="sv01"/>
      <point x="372.32" y="410"/>
      <point x="406.62" y="357.673"/>
      <point x="406.62" y="253.019" type="curve" smooth="yes"/>
      <point x="406.62" y="145.346"/>
      <point x="375.26" y="90"/>
    </contour>
    <contour>
      <point x="549.45" y="308" type="line"/>
      <point x="549.45" y="365"/>
      <point x="600.86" y="410"/>
      <point x="665.85" y="410" type="curve" smooth="yes"/>
      <point x="727.93" y="410"/>
      <point x="773.52" y="367"/>
      <point x="773.52" y="308" type="curve"/>
    </contour>
    <contour>
      <point x="776.43" y="167" type="line"/>
      <point x="772.55" y="114"/>
      <point x="722.11" y="90"/>
      <point x="668.76" y="90" type="curve" smooth="yes"/>
      <point x="604.74" y="90"/>
      <point x="549.45" y="131.315"/>
      <point x="549.45" y="221" type="curve"/>
      <point x="911.26" y="221" type="line"/>
      <point x="911.26" y="397"/>
      <point x="831.72" y="520"/>
      <point x="665.85" y="520" type="curve" smooth="yes"/>
      <point x="499.98" y="520"/>
      <point x="406.86" y="401"/>
      <point x="406.86" y="255" type="curve" smooth="yes"/>
      <point x="406.86" y="95"/>
      <point x="508.71" y="-20"/>
      <point x="668.76" y="-20" type="curve" smooth="yes"/>
      <point x="802.62" y="-20"/>
      <point x="887.01" y="50"/>
      <point x="906.41" y="167" type="curve"/>
    </contour>
  </outline>
</glyph>
<glyph name="one.ss09" format="2">
  <advance width="544"/>
  <outline>
    <contour>
      <point x="213.5" y="0" type="line"/>
      <point x="358" y="0" type="line"/>
      <point x="358" y="700" type="line"/>
      <point x="220" y="700" type="line"/>
      <point x="220" y="615.4"/>
      <point x="159.187" y="559"/>
      <point x="49.5" y="559" type="curve"/>
      <point x="49.5" y="439" type="line"/>
      <point x="109.129" y="439"/>
      <point x="213" y="479.389"/>
      <point x="213" y="547" type="curve"/>
    </contour>
    <contour>
      <point x="46" y="0" type="line"/>
      <point x="498" y="0" type="line"/>
      <point x="498" y="120" type="line"/>
      <point x="46" y="120" type="line"/>
    </contour>
  </outline>
</glyph>
<glyph name="r.ss10" format="2">
  <advance width="527"/>
  <anchor x="287" y="520" name="top"/>
  <anchor x="150" y="-20" name="bottom"/>
  <outline>
    <contour>
      <point x="74" y="0" type="line" name="ab02"/>
      <point x="219" y="0" type="line"/>
      <point x="219" y="222.111" type="line" smooth="yes" name="iv01"/>
      <point x="219" y="339.055"/>
      <point x="251.52" y="400"/>
      <point x="313.96" y="400" type="curve" smooth="yes" name="sv01"/>
      <point x="345.38" y="400"/>
      <point x="361.76" y="380.754"/>
      <point x="363.86" y="339.74" type="curve"/>
      <point x="499.44" y="363.69" type="line"/>
      <point x="502.74" y="475.15"/>
      <point x="432.34" y="520"/>
      <point x="359.6" y="520" type="curve" smooth="yes" name="at01"/>
      <point x="293.06" y="520"/>
      <point x="245.27" y="482.47"/>
      <point x="219" y="422.22" type="curve"/>
      <point x="219" y="500" type="line" name="av01"/>
      <point x="74" y="500" type="line"/>
    </contour>
  </outline>
</glyph>
<glyph name="s.ss10" format="2">
  <advance width="522"/>
  <anchor x="253" y="520" name="top"/>
  <anchor x="265" y="-20" name="bottom"/>
  <outline>
    <contour>
      <point x="37" y="83" type="line"/>
      <point x="95" y="1"/>
      <point x="179" y="-20"/>
      <point x="262" y="-20" type="curve" smooth="yes"/>
      <point x="402" y="-20"/>
      <point x="474" y="40"/>
      <point x="474" y="137.118" type="curve" smooth="yes"/>
      <point x="474" y="249.303"/>
      <point x="377.927" y="273.911"/>
      <point x="297.537" y="294.503" type="curve" smooth="yes"/>
      <point x="239.711" y="309.314"/>
      <point x="190" y="322.048"/>
      <point x="190" y="363.803" type="curve" smooth="yes"/>
      <point x="190" y="394"/>
      <point x="216" y="410"/>
      <point x="262" y="410" type="curve" smooth="yes"/>
      <point x="330" y="410"/>
      <point x="382" y="375"/>
      <point x="431" y="302" type="curve"/>
      <point x="462" y="421" type="line"/>
      <point x="438" y="465"/>
      <point x="358" y="520"/>
      <point x="245" y="520" type="curve" smooth="yes"/>
      <point x="121" y="520"/>
      <point x="45" y="454"/>
      <point x="45" y="362.629" type="curve" smooth="yes"/>
      <point x="45" y="257.844"/>
      <point x="144.953" y="225.429"/>
      <point x="226.264" y="199.059" type="curve" smooth="yes"/>
      <point x="282.014" y="180.98"/>
      <point x="329" y="165.742"/>
      <point x="329" y="131.969" type="curve" smooth="yes"/>
      <point x="329" y="102"/>
      <point x="292" y="90"/>
      <point x="262" y="90" type="curve" smooth="yes"/>
      <point x="173" y="90"/>
      <point x="121" y="122"/>
      <point x="71" y="201" type="curve"/>
    </contour>
  </outline>
</glyph>
<glyph name="sigmafinal.ss09" format="2">
  <advance width="610"/>
  <outline>
    <contour>
      <point x="520" y="-200" type="line"/>
      <point x="542" y="-180"/>
      <point x="568" y="-139"/>
      <point x="568" y="-78" type="curve" smooth="yes"/>
      <point x="568" y="31"/>
      <point x="486" y="91"/>
      <point x="358" y="91" type="curve" smooth="yes"/>
      <point x="225" y="91"/>
      <point x="184" y="156.204"/>
      <point x="184" y="249.497" type="curve" smooth="yes"/>
      <point x="184" y="349.811"/>
      <point x="231" y="410"/>
      <point x="313" y="410" type="curve" smooth="yes"/>
      <point x="373" y="410"/>
      <point x="410" y="377.835"/>
      <point x="416" y="333" type="curve"/>
      <point x="551" y="333" type="line"/>
      <point x="531" y="457.667"/>
      <point x="440" y="520"/>
      <point x="309" y="520" type="curve" smooth="yes"/>
      <point x="141" y="520"/>
      <point x="39" y="417"/>
      <point x="39" y="248" type="curve" smooth="yes"/>
      <point x="39" y="87"/>
      <point x="131" y="-20"/>
      <point x="318" y="-20" type="curve" smooth="yes"/>
      <point x="369" y="-20"/>
      <point x="423" y="-28"/>
      <point x="423" y="-104" type="curve" smooth="yes"/>
      <point x="423" y="-137"/>
      <point x="413" y="-163"/>
      <point x="381" y="-200" type="curve"/>
    </contour>
  </outline>
</glyph>
<glyph name="six.ss10" format="2">
  <advance width="667"/>
  <outline>
    <contour>
      <point x="199" y="216" type="curve" smooth="yes"/>
      <point x="199" y="142"/>
      <point x="248" y="100"/>
      <point x="334" y="100" type="curve" smooth="yes"/>
      <point x="425" y="100"/>
      <point x="474" y="148"/>
      <point x="474" y="228" type="curve" smooth="yes"/>
      <point x="474" y="307"/>
      <point x="426" y="352"/>
      <point x="346" y="352" type="curve" smooth="yes"/>
      <point x="258" y="352"/>
      <point x="199" y="298"/>
    </contour>
    <contour>
      <point x="585" y="445" type="line"/>
      <point x="502" y="565"/>
      <point x="434" y="599"/>
      <point x="349" y="599" type="curve" smooth="yes"/>
      <point x="227.99" y="599"/>
      <point x="157.99" y="531"/>
      <point x="157.99" y="359.99" type="curve"/>
      <point x="200.99" y="422.99"/>
      <point x="261.99" y="463"/>
      <point x="366" y="463" type="curve" smooth="yes"/>
      <point x="526" y="463"/>
      <point x="620" y="369"/>
      <point x="620" y="228" type="curve" smooth="yes"/>
      <point x="620" y="86"/>
      <point x="524" y="-20"/>
      <point x="343" y="-20" type="curve" smooth="yes"/>
      <point x="119.225" y="-20"/>
      <point x="43.02" y="139.655"/>
      <point x="43.02" y="340.66" type="curve" smooth="yes"/>
      <point x="43.02" y="539.167"/>
      <point x="117.759" y="720"/>
      <point x="345" y="720" type="curve" smooth="yes"/>
      <point x="459" y="720"/>
      <point x="554" y="673"/>
      <point x="624" y="583" type="curve"/>
    </contour>
  </outline>
</glyph>
<glyph name="softcyr.loclBGR" format="2">
  <advance width="536"/>
  <anchor x="268" y="-20" name="bottom"/>
  <anchor x="268" y="520" name="top"/>
  <outline>
    <contour>
      <point x="111" y="222" type="line"/>
      <point x="263" y="222" type="line" smooth="yes"/>
      <point x="317" y="222"/>
      <point x="341" y="197.25"/>
      <point x="341" y="157.179" type="curve" smooth="yes"/>
      <point x="341" y="111.317"/>
      <point x="320.594" y="90"/>
      <point x="276.694" y="90" type="curve" smooth="yes"/>
      <point x="233.581" y="90"/>
      <point x="214.868" y="108.128"/>
      <point x="214.882" y="149.923" type="curve" smooth="yes"/>
      <point x="215" y="500" type="line"/>
      <point x="70" y="500" type="line"/>
      <point x="69.8821" y="157.84" type="line" smooth="yes"/>
      <point x="69.842" y="41.3476"/>
      <point x="142.811" y="-20"/>
      <point x="281.296" y="-20" type="curve" smooth="yes"/>
      <point x="410.298" y="-20"/>
      <point x="486" y="47.0471"/>
      <point x="486" y="161.301" type="curve" smooth="yes"/>
      <point x="486" y="268.386"/>
      <point x="413" y="332"/>
      <point x="292" y="332" type="curve" smooth="yes"/>
      <point x="111" y="332" type="line"/>
    </contour>
  </outline>
</glyph>
<glyph name="tbar.ss11" format="2">
  <advance width="353"/>
  <outline>
    <contour>
      <point x="84" y="0" type="line"/>
      <point x="229" y="0" type="line"/>
      <point x="229" y="390" type="line"/>
      <point x="334" y="390" type="line"/>
      <point x="334" y="500" type="line"/>
      <point x="229" y="500" type="line"/>
      <point x="229" y="620" type="line"/>
      <point x="84" y="620" type="line"/>
      <point x="84" y="500" type="line"/>
      <point x="19" y="500" type="line"/>
      <point x="19" y="390" type="line"/>
      <point x="84" y="390" type="line"/>
    </contour>
    <contour>
      <point x="13.2725" y="159.554" type="line"/>
      <point x="328.732" y="159.554" type="line"/>
      <point x="328.732" y="251.498" type="line"/>
      <point x="13.2725" y="251.498" type="line"/>
    </contour>
  </outline>
</glyph>
<glyph name="three.osf.ss10" format="2">
  <advance width="550"/>
  <outline>
    <contour>
      <point x="17" y="-30" type="line"/>
      <point x="81" y="-120"/>
      <point x="168" y="-167"/>
      <point x="280" y="-167" type="curve" smooth="yes"/>
      <point x="427" y="-167"/>
      <point x="520" y="-82.7105"/>
      <point x="520" y="36.3485" type="curve" smooth="yes"/>
      <point x="520" y="163.836"/>
      <point x="414" y="226"/>
      <point x="192" y="226" type="curve"/>
      <point x="192" y="156" type="line"/>
      <point x="324" y="156"/>
      <point x="374" y="110.495"/>
      <point x="374" y="43.9011" type="curve" smooth="yes"/>
      <point x="374" y="-14.9231"/>
      <point x="336" y="-46"/>
      <point x="277" y="-46" type="curve" smooth="yes"/>
      <point x="200" y="-46"/>
      <point x="126" y="2"/>
      <point x="56" y="108" type="curve"/>
    </contour>
    <contour>
      <point x="54" y="298" type="line"/>
      <point x="136" y="418"/>
      <point x="206" y="452"/>
      <point x="273" y="452" type="curve" smooth="yes"/>
      <point x="331" y="452"/>
      <point x="354" y="421.329"/>
      <point x="354" y="370.605" type="curve" smooth="yes"/>
      <point x="354" y="299.826"/>
      <point x="309" y="255"/>
      <point x="192" y="255" type="curve"/>
      <point x="192" y="185" type="line"/>
      <point x="400" y="185"/>
      <point x="500" y="246.777"/>
      <point x="500" y="373.581" type="curve" smooth="yes"/>
      <point x="500" y="487.38"/>
      <point x="419" y="573"/>
      <point x="277" y="573" type="curve" smooth="yes"/>
      <point x="168" y="573"/>
      <point x="79" y="526"/>
      <point x="15" y="436" type="curve"/>
    </contour>
  </outline>
</glyph>
<glyph name="tshecyr.ss11" format="2">
  <advance width="665"/>
  <outline>
    <contour>
      <point x="104" y="0" type="line" name="ab03"/>
      <point x="249" y="0" type="line"/>
      <point x="249" y="700" type="line" name="ab01"/>
      <point x="104" y="700" type="line"/>
    </contour>
    <contour>
      <point x="249" y="197" type="line" name="iv01"/>
      <point x="249" y="313"/>
      <point x="291" y="389"/>
      <point x="366" y="389" type="curve" smooth="yes" name="sv01"/>
      <point x="416" y="389"/>
      <point x="446" y="363"/>
      <point x="446" y="258" type="curve" smooth="yes"/>
      <point x="446" y="0" type="line" name="ab01"/>
      <point x="591" y="0" type="line"/>
      <point x="591" y="294" type="line" smooth="yes"/>
      <point x="591" y="442"/>
      <point x="522" y="500"/>
      <point x="419" y="500" type="curve" smooth="yes" name="at01"/>
      <point x="331" y="500"/>
      <point x="260" y="436"/>
      <point x="241" y="341" type="curve"/>
      <point x="242" y="262" type="line"/>
    </contour>
    <contour>
      <point x="16" y="580" type="line"/>
      <point x="405" y="580" type="line"/>
      <point x="405" y="616" type="line"/>
      <point x="16" y="616" type="line"/>
    </contour>
  </outline>
</glyph>
<glyph name="two.osf.ss10" format="2">
  <advance width="612"/>
  <outline>
    <contour>
      <point x="47" y="0" type="line"/>
      <point x="566" y="0" type="line"/>
      <point x="566" y="115" type="line"/>
      <point x="47" y="115" type="line"/>
    </contour>
    <contour>
      <point x="47" y="54" type="line"/>
      <point x="363.127" y="106.943"/>
      <point x="546" y="195.552"/>
      <point x="546" y="372.271" type="curve" smooth="yes"/>
      <point x="546" y="502.969"/>
      <point x="461.424" y="572"/>
      <point x="315.339" y="572" type="curve" smooth="yes"/>
      <point x="199.047" y="572"/>
      <point x="113.51" y="525"/>
      <point x="52" y="435" type="curve"/>
      <point x="91" y="297" type="line"/>
      <point x="168.03" y="417"/>
      <point x="233.788" y="451"/>
      <point x="303.303" y="451" type="curve" smooth="yes"/>
      <point x="370.939" y="451"/>
      <point x="401" y="421.402"/>
      <point x="401" y="361.31" type="curve" smooth="yes"/>
      <point x="401" y="259.96"/>
      <point x="316.759" y="205.249"/>
      <point x="47" y="156" type="curve"/>
    </contour>
  </outline>
</glyph>
<glyph name="uogonek.ss05" format="2">
  <advance width="600"/>
  <anchor x="300" y="-20" name="bottom"/>
  <anchor x="300" y="520" name="top"/>
  <outline>
    <contour>
      <point x="398" y="213" type="line"/>
      <point x="382" y="283" type="line"/>
      <point x="382" y="159.359"/>
      <point x="346" y="90"/>
      <point x="281" y="90" type="curve" smooth="yes"/>
      <point x="233" y="90"/>
      <point x="211" y="128.093"/>
      <point x="211" y="212.298" type="curve" smooth="yes"/>
      <point x="211" y="500" type="line"/>
      <point x="66" y="500" type="line"/>
      <point x="66" y="196" type="line" smooth="yes"/>
      <point x="66" y="51"/>
      <point x="124" y="-20"/>
      <point x="232" y="-20" type="curve" smooth="yes"/>
      <point x="322" y="-20"/>
      <point x="373" y="30"/>
      <point x="400" y="130" type="curve"/>
    </contour>
    <contour>
      <point x="382" y="0" type="line"/>
      <point x="527" y="0" type="line"/>
      <point x="527" y="500" type="line"/>
      <point x="382" y="500" type="line"/>
    </contour>
    <contour>
      <point x="528" y="-182" type="line"/>
      <point x="485" y="-168"/>
      <point x="464" y="-137"/>
      <point x="464" y="-103" type="curve" smooth="yes"/>
      <point x="464" y="-66"/>
      <point x="488" y="-24"/>
      <point x="527" y="0" type="curve"/>
      <point x="494" y="3" type="line"/>
      <point x="405" y="-13"/>
      <point x="354" y="-55"/>
      <point x="354" y="-108" type="curve" smooth="yes"/>
      <point x="354" y="-158"/>
      <point x="398" y="-195"/>
      <point x="471" y="-205" type="curve"/>
    </contour>
  </outline>
</glyph>
<glyph name="y.ss04" format="2">
  <advance width="565"/>
  <anchor x="448" y="0" name="bottom"/>
  <anchor x="283" y="520" name="top"/>
  <outline>
    <contour>
      <point x="51" y="-198" type="line"/>
      <point x="98" y="-212"/>
      <point x="112" y="-221"/>
      <point x="180" y="-221" type="curve" smooth="yes" name="dv01"/>
      <point x="270" y="-221"/>
      <point x="320" y="-180"/>
      <point x="355" y="-78" type="curve" smooth="yes"/>
      <point x="554" y="500" type="line" name="av01"/>
      <point x="402" y="500" type="line"/>
      <point x="238" y="-35" type="line" smooth="yes"/>
      <point x="220.76" y="-91.2388"/>
      <point x="190" y="-108"/>
      <point x="138" y="-108" type="curve" smooth="yes" name="dv02"/>
      <point x="123" y="-108"/>
      <point x="95" y="-105"/>
      <point x="76" y="-96" type="curve"/>
    </contour>
    <contour>
      <point x="184" y="0" type="line"/>
      <point x="316" y="0" type="line"/>
      <point x="164" y="500" type="line" name="av02"/>
      <point x="12" y="500" type="line"/>
    </contour>
  </outline>
</glyph>
<glyph name="zecyr.ss12" format="2">
  <advance width="487"/>
  <anchor x="251" y="-20" name="bottom"/>
  <anchor x="244" y="520" name="top"/>
  <outline>
    <contour>
      <point x="36" y="79" type="line"/>
      <point x="93" y="14"/>
      <point x="164" y="-20"/>
      <point x="239" y="-20" type="curve" smooth="yes"/>
      <point x="366" y="-20"/>
      <point x="445" y="41"/>
      <point x="445" y="134" type="curve" smooth="yes"/>
      <point x="445" y="220"/>
      <point x="389" y="261"/>
      <point x="264" y="260" type="curve"/>
      <point x="381" y="270"/>
      <point x="426" y="306"/>
      <point x="426" y="386" type="curve" smooth="yes"/>
      <point x="426" y="469"/>
      <point x="365" y="520"/>
      <point x="240" y="520" type="curve" smooth="yes"/>
      <point x="166" y="520"/>
      <point x="94" y="486"/>
      <point x="36" y="421" type="curve"/>
      <point x="43" y="337" type="line"/>
      <point x="129" y="391"/>
      <point x="176" y="410"/>
      <point x="225" y="410" type="curve" smooth="yes"/>
      <point x="270" y="410"/>
      <point x="284" y="392"/>
      <point x="284" y="356" type="curve" smooth="yes"/>
      <point x="284" y="314"/>
      <point x="223" y="297"/>
      <point x="141" y="297" type="curve"/>
      <point x="141" y="212" type="line"/>
      <point x="243" y="212"/>
      <point x="300" y="196"/>
      <point x="300" y="148" type="curve" smooth="yes"/>
      <point x="300" y="108"/>
      <point x="280" y="90"/>
      <point x="223" y="90" type="curve" smooth="yes"/>
      <point x="174" y="90"/>
      <point x="127" y="109"/>
      <point x="43" y="163" type="curve"/>
    </contour>
  </outline>
</glyph>
